<svg id="visual" viewBox="0 0 960 540" width="960" height="540" xmlns="http://www.w3.org/2000/svg" xmlns:xlink="http://www.w3.org/1999/xlink" version="1.1"><g stroke-width="1" stroke-linejoin="bevel"><path d="M450.7 275L391.7 325L519.3 341Z" fill="#297ea6" stroke="#297ea6"></path><path d="M391.7 325L463.7 413L519.3 341Z" fill="#0c2435" stroke="#0c2435"></path><path d="M519.3 341L542.3 255L450.7 275Z" fill="#297ea6" stroke="#297ea6"></path><path d="M542.3 255L533.3 218L450.7 275Z" fill="#246688" stroke="#246688"></path><path d="M463.7 413L550.3 450L519.3 341Z" fill="#205a7a" stroke="#205a7a"></path><path d="M519.3 341L628 304L542.3 255Z" fill="#205a7a" stroke="#205a7a"></path><path d="M391.7 325L330 428L463.7 413Z" fill="#081a28" stroke="#081a28"></path><path d="M463.7 413L430.7 540L550.3 450Z" fill="#297ea6" stroke="#297ea6"></path><path d="M450.7 275L309 280L391.7 325Z" fill="#112e42" stroke="#112e42"></path><path d="M391.7 325L284 368L330 428Z" fill="#15384f" stroke="#15384f"></path><path d="M321 199L309 280L450.7 275Z" fill="#1d4e6b" stroke="#1d4e6b"></path><path d="M309 280L284 368L391.7 325Z" fill="#1d4e6b" stroke="#1d4e6b"></path><path d="M550.3 450L613 416L519.3 341Z" fill="#00101c" stroke="#00101c"></path><path d="M542.3 255L614 162L533.3 218Z" fill="#15384f" stroke="#15384f"></path><path d="M613 416L628 304L519.3 341Z" fill="#1d4e6b" stroke="#1d4e6b"></path><path d="M533.3 218L402.7 169L450.7 275Z" fill="#246688" stroke="#246688"></path><path d="M402.7 169L321 199L450.7 275Z" fill="#00101c" stroke="#00101c"></path><path d="M309 280L236.3 308L284 368Z" fill="#112e42" stroke="#112e42"></path><path d="M330 428L430.7 540L463.7 413Z" fill="#19435d" stroke="#19435d"></path><path d="M550.3 450L629 540L613 416Z" fill="#246688" stroke="#246688"></path><path d="M613 416L666 390L628 304Z" fill="#00101c" stroke="#00101c"></path><path d="M629 540L666 390L613 416Z" fill="#0c2435" stroke="#0c2435"></path><path d="M321 199L236.3 308L309 280Z" fill="#19435d" stroke="#19435d"></path><path d="M232.3 540L309 540L330 428Z" fill="#277297" stroke="#277297"></path><path d="M430.7 540L548.3 540L550.3 450Z" fill="#205a7a" stroke="#205a7a"></path><path d="M628 304L614 162L542.3 255Z" fill="#246688" stroke="#246688"></path><path d="M533.3 218L546.3 111L402.7 169Z" fill="#205a7a" stroke="#205a7a"></path><path d="M722.7 188L614 162L628 304Z" fill="#246688" stroke="#246688"></path><path d="M614 162L546.3 111L533.3 218Z" fill="#15384f" stroke="#15384f"></path><path d="M402.7 169L397.7 95L321 199Z" fill="#1d4e6b" stroke="#1d4e6b"></path><path d="M178.3 415L330 428L284 368Z" fill="#00101c" stroke="#00101c"></path><path d="M330 428L309 540L430.7 540Z" fill="#0c2435" stroke="#0c2435"></path><path d="M546.3 111L397.7 95L402.7 169Z" fill="#112e42" stroke="#112e42"></path><path d="M177.3 184L195.3 331L236.3 308Z" fill="#297ea6" stroke="#297ea6"></path><path d="M177.3 184L236.3 308L321 199Z" fill="#112e42" stroke="#112e42"></path><path d="M236.3 308L195.3 331L284 368Z" fill="#246688" stroke="#246688"></path><path d="M722.7 188L608 123L614 162Z" fill="#081a28" stroke="#081a28"></path><path d="M614 162L608 123L546.3 111Z" fill="#205a7a" stroke="#205a7a"></path><path d="M548.3 540L629 540L550.3 450Z" fill="#1d4e6b" stroke="#1d4e6b"></path><path d="M195.3 331L178.3 415L284 368Z" fill="#15384f" stroke="#15384f"></path><path d="M772.7 467L741.7 356L666 390Z" fill="#19435d" stroke="#19435d"></path><path d="M666 390L741.7 356L628 304Z" fill="#205a7a" stroke="#205a7a"></path><path d="M178.3 415L232.3 540L330 428Z" fill="#19435d" stroke="#19435d"></path><path d="M780.7 246L722.7 188L628 304Z" fill="#081a28" stroke="#081a28"></path><path d="M203.3 81L177.3 184L321 199Z" fill="#15384f" stroke="#15384f"></path><path d="M66.7 352L128.7 434L178.3 415Z" fill="#297ea6" stroke="#297ea6"></path><path d="M334 0L287 57L397.7 95Z" fill="#277297" stroke="#277297"></path><path d="M397.7 95L287 57L321 199Z" fill="#00101c" stroke="#00101c"></path><path d="M425.7 0L397.7 95L523.3 0Z" fill="#277297" stroke="#277297"></path><path d="M741.7 356L780.7 246L628 304Z" fill="#081a28" stroke="#081a28"></path><path d="M66.7 352L178.3 415L195.3 331Z" fill="#112e42" stroke="#112e42"></path><path d="M178.3 415L128.7 434L232.3 540Z" fill="#112e42" stroke="#112e42"></path><path d="M523.3 0L546.3 111L645 0Z" fill="#19435d" stroke="#19435d"></path><path d="M523.3 0L397.7 95L546.3 111Z" fill="#277297" stroke="#277297"></path><path d="M742.7 540L772.7 467L666 390Z" fill="#1d4e6b" stroke="#1d4e6b"></path><path d="M854.3 329L831.3 249L780.7 246Z" fill="#277297" stroke="#277297"></path><path d="M645 0L546.3 111L608 123Z" fill="#15384f" stroke="#15384f"></path><path d="M177.3 184L106.7 298L195.3 331Z" fill="#246688" stroke="#246688"></path><path d="M629 540L742.7 540L666 390Z" fill="#1d4e6b" stroke="#1d4e6b"></path><path d="M425.7 0L334 0L397.7 95Z" fill="#297ea6" stroke="#297ea6"></path><path d="M287 57L203.3 81L321 199Z" fill="#246688" stroke="#246688"></path><path d="M176.3 0L203.3 81L287 57Z" fill="#081a28" stroke="#081a28"></path><path d="M177.3 184L71.7 175L106.7 298Z" fill="#15384f" stroke="#15384f"></path><path d="M867.3 540L814.3 417L772.7 467Z" fill="#205a7a" stroke="#205a7a"></path><path d="M772.7 467L814.3 417L741.7 356Z" fill="#0c2435" stroke="#0c2435"></path><path d="M854.3 329L780.7 246L741.7 356Z" fill="#00101c" stroke="#00101c"></path><path d="M780.7 246L830.3 162L722.7 188Z" fill="#112e42" stroke="#112e42"></path><path d="M748.7 69L645 0L608 123Z" fill="#1d4e6b" stroke="#1d4e6b"></path><path d="M106.7 298L66.7 352L195.3 331Z" fill="#081a28" stroke="#081a28"></path><path d="M0 281L66.7 352L106.7 298Z" fill="#112e42" stroke="#112e42"></path><path d="M748.7 69L608 123L722.7 188Z" fill="#081a28" stroke="#081a28"></path><path d="M819.3 112L748.7 69L722.7 188Z" fill="#0c2435" stroke="#0c2435"></path><path d="M814.3 417L854.3 329L741.7 356Z" fill="#0c2435" stroke="#0c2435"></path><path d="M176.3 0L128.7 97L203.3 81Z" fill="#297ea6" stroke="#297ea6"></path><path d="M203.3 81L128.7 97L177.3 184Z" fill="#112e42" stroke="#112e42"></path><path d="M831.3 249L830.3 162L780.7 246Z" fill="#00101c" stroke="#00101c"></path><path d="M960 152L830.3 162L831.3 249Z" fill="#1d4e6b" stroke="#1d4e6b"></path><path d="M0 454L90.7 540L128.7 434Z" fill="#15384f" stroke="#15384f"></path><path d="M128.7 434L90.7 540L232.3 540Z" fill="#297ea6" stroke="#297ea6"></path><path d="M128.7 97L71.7 175L177.3 184Z" fill="#1d4e6b" stroke="#1d4e6b"></path><path d="M830.3 162L819.3 112L722.7 188Z" fill="#081a28" stroke="#081a28"></path><path d="M748.7 69L720.7 0L645 0Z" fill="#205a7a" stroke="#205a7a"></path><path d="M842.3 0L720.7 0L748.7 69Z" fill="#1d4e6b" stroke="#1d4e6b"></path><path d="M334 0L176.3 0L287 57Z" fill="#081a28" stroke="#081a28"></path><path d="M0 109L0 179L71.7 175Z" fill="#246688" stroke="#246688"></path><path d="M0 281L0 395L66.7 352Z" fill="#277297" stroke="#277297"></path><path d="M66.7 352L0 395L128.7 434Z" fill="#277297" stroke="#277297"></path><path d="M0 179L0 281L71.7 175Z" fill="#205a7a" stroke="#205a7a"></path><path d="M71.7 175L0 281L106.7 298Z" fill="#0c2435" stroke="#0c2435"></path><path d="M742.7 540L867.3 540L772.7 467Z" fill="#205a7a" stroke="#205a7a"></path><path d="M960 457L960 322L854.3 329Z" fill="#205a7a" stroke="#205a7a"></path><path d="M0 395L0 454L128.7 434Z" fill="#19435d" stroke="#19435d"></path><path d="M0 109L71.7 175L128.7 97Z" fill="#081a28" stroke="#081a28"></path><path d="M0 454L0 540L90.7 540Z" fill="#081a28" stroke="#081a28"></path><path d="M176.3 0L80.7 0L128.7 97Z" fill="#15384f" stroke="#15384f"></path><path d="M960 457L854.3 329L814.3 417Z" fill="#205a7a" stroke="#205a7a"></path><path d="M854.3 329L960 266L831.3 249Z" fill="#19435d" stroke="#19435d"></path><path d="M830.3 162L960 152L819.3 112Z" fill="#277297" stroke="#277297"></path><path d="M80.7 0L0 109L128.7 97Z" fill="#112e42" stroke="#112e42"></path><path d="M960 322L960 266L854.3 329Z" fill="#081a28" stroke="#081a28"></path><path d="M819.3 112L842.3 0L748.7 69Z" fill="#205a7a" stroke="#205a7a"></path><path d="M960 57L842.3 0L819.3 112Z" fill="#0c2435" stroke="#0c2435"></path><path d="M867.3 540L960 457L814.3 417Z" fill="#297ea6" stroke="#297ea6"></path><path d="M960 266L960 152L831.3 249Z" fill="#15384f" stroke="#15384f"></path><path d="M867.3 540L960 540L960 457Z" fill="#112e42" stroke="#112e42"></path><path d="M80.7 0L0 0L0 109Z" fill="#0c2435" stroke="#0c2435"></path><path d="M960 152L960 57L819.3 112Z" fill="#277297" stroke="#277297"></path><path d="M960 57L960 0L842.3 0Z" fill="#297ea6" stroke="#297ea6"></path></g></svg>