<svg id="visual" viewBox="0 0 960 540" width="960" height="540" xmlns="http://www.w3.org/2000/svg" xmlns:xlink="http://www.w3.org/1999/xlink" version="1.1"><path d="M0 399L22.8 401C45.7 403 91.3 407 137 403C182.7 399 228.3 387 274 380.3C319.7 373.7 365.3 372.3 411.2 369.7C457 367 503 363 548.8 367.5C594.7 372 640.3 385 686 382.3C731.7 379.7 777.3 361.3 823 351.8C868.7 342.3 914.3 341.7 937.2 341.3L960 341L960 541L937.2 541C914.3 541 868.7 541 823 541C777.3 541 731.7 541 686 541C640.3 541 594.7 541 548.8 541C503 541 457 541 411.2 541C365.3 541 319.7 541 274 541C228.3 541 182.7 541 137 541C91.3 541 45.7 541 22.8 541L0 541Z" fill="#fa0203"></path><path d="M0 419L22.8 429.2C45.7 439.3 91.3 459.7 137 466C182.7 472.3 228.3 464.7 274 464.2C319.7 463.7 365.3 470.3 411.2 463C457 455.7 503 434.3 548.8 424.5C594.7 414.7 640.3 416.3 686 423.5C731.7 430.7 777.3 443.3 823 445.8C868.7 448.3 914.3 440.7 937.2 436.8L960 433L960 541L937.2 541C914.3 541 868.7 541 823 541C777.3 541 731.7 541 686 541C640.3 541 594.7 541 548.8 541C503 541 457 541 411.2 541C365.3 541 319.7 541 274 541C228.3 541 182.7 541 137 541C91.3 541 45.7 541 22.8 541L0 541Z" fill="#282c83"></path></svg>